# xmcd
#
# Track frame offsets:
#   150
#   10154
#   22064
#   31631
#   41091
#   49681
#   57354
#   67781
#   78922
#   89257
#   99935
#   110227
#   120989
#   132416
#   141597
#   153131
#   162328
#   177628
#   185985
#   196263
#   210901
#   221264
#   229591
#   240322
#   249266
#   260438
#   270836
#   280879
#   302748
#
# Disc length: 4335 seconds
#
# Revision: 1
# Processed by: cddbd v1.5.1PL0 Copyright (c) Steve Scherf et al.
# Submitted via: Media_Universe 3.0
#
DISCID=8510ed1d
DTITLE=Fats Domino - Legends Of New Orleans
DYEAR=2001
DGENRE=Blues
TTITLE0=I'm Walking                   
TTITLE1=Let The Four Winds Blow
TTITLE2=My Blue Heaven
TTITLE3=I'm In Love Again 
TTITLE4=I'm Ready
TTITLE5=Blueberry Hill
TTITLE6=Margie
TTITLE7=Blue Monday
TTITLE8=Poor Me
TTITLE9=When The Saints Go Marching In
TTITLE10=When My Dreamboat Comes Home
TTITLE11=I'm Gonna Be A Wheel Someday
TTITLE12=Tha Fat Man
TTITLE13=My Girl Josephine
TTITLE14=Going To The River            
TTITLE15=Walkin' To New Orleans (1960)
TTITLE16=Jambalaya
TTITLE17=Honey chile
TTITLE18=My Happines
TTITLE19=Don't Mess with My Toot Toot - Doug Kershaw and Fats Domino
TTITLE20=Lady Madonna
TTITLE21=Birds and bees
TTITLE22=Boogie Woogie Baby
TTITLE23=I Hear You Knocking
TTITLE24=Ain't That a Shame
TTITLE25=Country Boy
TTITLE26=Sally was a good old girl
TTITLE27=Your a Friend of Mine - Clarence Clemons and Jackson Browne 
TTITLE28=Dance Medley (Remix)
EXTD=EP
EXTT0=
EXTT1=
EXTT2=
EXTT3=
EXTT4=
EXTT5=
EXTT6=
EXTT7=
EXTT8=
EXTT9=
EXTT10=
EXTT11=
EXTT12=
EXTT13=
EXTT14=
EXTT15=
EXTT16=
EXTT17=
EXTT18=
EXTT19=
EXTT20=
EXTT21=
EXTT22=
EXTT23=
EXTT24=
EXTT25=
EXTT26=
EXTT27=
EXTT28=
PLAYORDER=
